<?xml version="1.0" encoding="utf-8"?>
<!-- Generator: Adobe Illustrator 16.0.0, SVG Export Plug-In . SVG Version: 6.00 Build 0)  -->
<!DOCTYPE svg PUBLIC "-//W3C//DTD SVG 1.1//EN" "http://www.w3.org/Graphics/SVG/1.1/DTD/svg11.dtd">
<svg version="1.1" id="Capa_1" xmlns="http://www.w3.org/2000/svg" xmlns:xlink="http://www.w3.org/1999/xlink" x="0px" y="0px"
	 width="311.873px" height="72.081px" viewBox="0 0 311.873 72.081" enable-background="new 0 0 311.873 72.081"
	 xml:space="preserve">
<g>
	<path fill="#666666" d="M102.283,42.385c1.933-0.881,3.6-2.026,4.953-3.405c1.359-1.384,2.425-2.999,3.167-4.805
		c0.741-1.804,1.117-3.721,1.117-5.696c0-2.205-0.399-4.296-1.187-6.217c-0.789-1.924-1.917-3.614-3.352-5.025
		c-1.436-1.41-3.198-2.524-5.242-3.312c-2.03-0.783-4.312-1.179-6.785-1.179H80.538v50.588h6.249V40.239l18.755,23.095h8.246
		l-16-19.578C99.39,43.476,100.896,43.017,102.283,42.385 M86.787,18.716h7.615c1.83,0,3.437,0.297,4.776,0.882
		c1.342,0.587,2.461,1.357,3.327,2.285c0.867,0.929,1.515,1.984,1.927,3.136c0.42,1.178,0.632,2.365,0.632,3.528
		s-0.222,2.346-0.66,3.513c-0.43,1.147-1.119,2.198-2.046,3.125c-0.932,0.934-2.165,1.706-3.663,2.297
		c-1.508,0.595-3.349,0.897-5.471,0.897h-6.436V18.716z"/>
	<path fill="#666666" d="M154.888,43.703c-0.047-2.802-0.614-5.466-1.68-7.917c-1.064-2.442-2.524-4.601-4.342-6.418
		c-1.817-1.817-3.965-3.266-6.388-4.309c-2.43-1.045-5.064-1.574-7.826-1.574c-2.81,0-5.48,0.542-7.936,1.61
		c-2.444,1.066-4.604,2.539-6.423,4.382c-1.814,1.84-3.273,4.009-4.337,6.448c-1.068,2.454-1.611,5.123-1.611,7.936
		c0,2.765,0.543,5.411,1.611,7.865c1.064,2.441,2.524,4.601,4.342,6.417c1.819,1.819,3.982,3.271,6.426,4.311
		c2.452,1.044,5.119,1.573,7.927,1.573c3.247,0,6.287-0.716,9.032-2.124c2.733-1.402,4.983-3.225,6.688-5.416L151,55.68
		l-4.662-3.813l-0.66,0.836c-1.282,1.625-2.912,2.938-4.842,3.904c-3.513,1.755-7.709,1.915-11.449,0.447
		c-1.69-0.664-3.208-1.629-4.511-2.869c-1.304-1.238-2.367-2.76-3.162-4.522c-0.663-1.467-1.068-3.109-1.207-4.896h34.399
		L154.888,43.703z M121.218,39.211c0.453-1.369,1.052-2.595,1.79-3.66c0.967-1.397,2.085-2.56,3.322-3.455
		c1.236-0.896,2.587-1.567,4.014-1.992c2.888-0.861,5.731-0.874,8.564,0.028c1.41,0.449,2.755,1.133,3.999,2.032
		c1.238,0.898,2.358,2.051,3.326,3.427c0.735,1.047,1.347,2.26,1.826,3.619H121.218z"/>
	<path fill="#666666" d="M168.058,13.38c-1.236,0.516-2.32,1.249-3.221,2.176c-0.904,0.929-1.599,2.015-2.063,3.23
		c-0.46,1.201-0.693,2.503-0.693,3.872v1.517h-5.126v5.625h5.126v33.532h6.11V29.801h8.937v-5.625h-8.937v-1.171
		c0-1.624,0.413-2.834,1.261-3.702c0.843-0.861,1.969-1.28,3.443-1.28h4.371v-5.417h-5.063
		C170.688,12.607,169.292,12.867,168.058,13.38"/>
	<path fill="#666666" d="M191.413,26.124c-1.687,1-3.175,2.316-4.448,3.932v-5.88h-6.248v39.157h6.248v-18.02
		c0-2.35,0.382-4.491,1.137-6.365c0.754-1.874,1.799-3.509,3.106-4.858c1.309-1.351,2.877-2.439,4.663-3.237
		c1.785-0.796,3.744-1.244,5.818-1.331l1.002-0.042v-5.965l-1.082,0.037C197.479,23.698,194.048,24.563,191.413,26.124"/>
	<path fill="#666666" d="M208.92,12.053c-1.254,0-2.329,0.441-3.199,1.31c-0.869,0.87-1.311,1.923-1.311,3.13
		c0,1.254,0.441,2.332,1.31,3.198c0.869,0.87,1.945,1.312,3.2,1.312c1.251,0,2.328-0.441,3.198-1.311
		c0.869-0.87,1.311-1.946,1.311-3.199c0-1.205-0.44-2.258-1.312-3.131C211.245,12.493,210.17,12.053,208.92,12.053"/>
	<rect x="205.796" y="24.177" fill="#666666" width="6.248" height="39.157"/>
	<polygon fill="#999999" points="251.821,24.177 243.074,24.177 225.207,41.021 225.207,12.607 218.958,12.607 218.958,63.333 
		225.207,63.333 225.207,48.748 232.127,42.296 245.479,63.333 252.957,63.333 236.805,38.208 	"/>
	<path fill="#999999" d="M258.314,12.053c-1.253,0-2.328,0.441-3.197,1.31c-0.87,0.87-1.312,1.923-1.312,3.13
		c0,1.254,0.441,2.332,1.311,3.198c0.868,0.87,1.944,1.312,3.198,1.312c1.253,0,2.329-0.441,3.2-1.311
		c0.868-0.87,1.31-1.946,1.31-3.199c0-1.205-0.44-2.258-1.311-3.131C260.642,12.493,259.566,12.053,258.314,12.053"/>
	<rect x="255.191" y="24.177" fill="#999999" width="6.248" height="39.157"/>
	<path fill="#999999" d="M297.936,12.607v11.639h-11.978c-2.587,0-5.075,0.533-7.396,1.583c-2.305,1.044-4.369,2.495-6.137,4.311
		c-1.769,1.817-3.192,3.988-4.231,6.455c-1.043,2.471-1.572,5.148-1.572,7.958c0,2.726,0.544,5.297,1.618,7.641
		c1.065,2.323,2.516,4.388,4.31,6.134c1.792,1.744,3.868,3.132,6.17,4.124c2.317,1,4.729,1.506,7.169,1.506
		c3.132,0,5.945-0.725,8.359-2.154c1.443-0.854,2.71-1.885,3.79-3.081l0.048,4.543h5.96V12.607H297.936z M297.936,30.148v14.473
		c0,1.811-0.293,3.558-0.871,5.193c-0.577,1.625-1.396,3.064-2.435,4.275c-1.032,1.204-2.293,2.178-3.747,2.896
		c-1.435,0.709-3.08,1.069-4.892,1.069c-1.876,0-3.634-0.345-5.222-1.024c-1.59-0.68-2.986-1.637-4.149-2.847
		c-1.166-1.211-2.093-2.66-2.755-4.307c-0.66-1.644-0.996-3.436-0.996-5.325c0-1.892,0.348-3.731,1.034-5.471
		c0.688-1.746,1.633-3.294,2.81-4.604c1.172-1.301,2.577-2.364,4.18-3.156c1.574-0.779,3.312-1.173,5.167-1.173H297.936z"/>
	<polygon fill="#DD4A4A" points="60.543,67.077 42.294,67.188 33.073,51.439 42.102,35.58 60.351,35.468 69.572,51.216 	"/>
	<polygon fill="#86B240" points="31.516,50.989 13.267,51.1 4.046,35.351 13.074,19.492 31.323,19.38 40.544,35.129 	"/>
	<polygon fill="#E8A623" points="60.543,34.126 42.294,34.237 33.073,18.488 42.102,2.629 60.351,2.518 69.572,18.266 	"/>
	<path fill="#FFFFFF" d="M45.016,50.017c1.33-0.156,2.659-0.769,3.724-1.832c1.355-1.356,1.98-3.141,1.857-4.808
		c-3.403-1.75-6.99-1.75-8.898,0.158C41.066,44.169,42.427,46.893,45.016,50.017 M45.294,43.679c0.294-0.292,0.769-0.292,1.061,0
		c0.294,0.294,0.294,0.77,0,1.062c-0.292,0.292-0.767,0.292-1.061-0.001C45.002,44.449,45.002,43.973,45.294,43.679"/>
	<path fill="#FFFFFF" d="M49.604,49.048c-1.058,1.058-2.338,1.741-3.661,2.048c0.448,0.501,0.922,1.006,1.423,1.51l0.121,1.742
		c0.026,0.373,0.188,0.724,0.453,0.988l0.343,0.343c0.134,0.133,0.325,0.188,0.508,0.145c0.183-0.044,0.329-0.178,0.386-0.357
		l0.321-0.991c2.866,2.19,6.167,3.645,8.068,3.958l1.395,4.058c0.063,0.183,0.23,0.31,0.423,0.32
		c0.191,0.01,0.372-0.098,0.454-0.272l0.832-1.766c0.163-0.347,0.44-0.624,0.786-0.787l1.768-0.832
		c0.174-0.082,0.281-0.262,0.271-0.455s-0.136-0.358-0.319-0.422l-4.052-1.394c-0.138-1.35-0.644-3.48-1.577-5.655l0.931-0.487
		c0.371-0.193,0.627-0.555,0.69-0.967c0.063-0.413-0.07-0.834-0.367-1.13l-4.104-4.104c-0.406-0.406-1.032-0.498-1.541-0.231
		l-0.584,0.308c-0.246-0.185-0.495-0.358-0.746-0.522C51.753,45.856,51.004,47.648,49.604,49.048"/>
	<path fill="#FFFFFF" d="M56.836,24.924c2.611,0.509,4.543,0.067,5.439-1.244c0.469-0.686,0.616-1.575,0.424-2.57
		c-0.244-1.261-1.024-2.711-2.258-4.204c-0.098,0.187-0.206,0.372-0.326,0.55c-0.638,0.949-1.523,1.659-2.493,1.999
		c-1.042,0.365-2.062,0.269-2.867-0.274c-0.327-0.219-0.414-0.662-0.194-0.989l2.857-4.254c-0.229-0.187-0.463-0.373-0.703-0.556
		c-0.154,0.465-0.376,0.919-0.663,1.345c-0.638,0.949-1.523,1.659-2.493,1.999c-1.042,0.365-2.061,0.268-2.867-0.273
		c-0.327-0.22-0.414-0.663-0.194-0.99l2.872-4.274c-0.254-0.142-0.508-0.278-0.761-0.409c-0.153,0.423-0.36,0.834-0.618,1.219
		c-0.638,0.949-1.523,1.659-2.494,1.999c-1.042,0.365-2.061,0.269-2.867-0.274c-0.327-0.219-0.414-0.663-0.194-0.989l2.354-3.505
		c-0.449-0.13-0.889-0.238-1.317-0.321c-2.611-0.509-4.543-0.068-5.44,1.243c-0.004,0.006-0.009,0.013-0.013,0.019
		c-0.459,0.684-0.601,1.565-0.411,2.551c0.254,1.312,1.087,2.828,2.41,4.385c1.316,1.549,3.052,3.062,5.021,4.376
		C51.663,23.232,54.432,24.455,56.836,24.924"/>
	<path fill="#FFFFFF" d="M52.188,15.506c0.887,0.075,1.978-0.528,2.681-1.574c0.307-0.456,0.514-0.948,0.61-1.441
		c-0.07-0.047-0.139-0.095-0.21-0.142c-0.221-0.148-0.445-0.292-0.668-0.433L52.188,15.506z"/>
	<path fill="#FFFFFF" d="M48.125,12.777c0.887,0.075,1.978-0.528,2.681-1.575c0.222-0.33,0.393-0.684,0.507-1.043
		c-0.376-0.167-0.75-0.32-1.12-0.46L48.125,12.777z"/>
	<path fill="#FFFFFF" d="M56.25,18.235c0.886,0.075,1.978-0.527,2.681-1.574c0.197-0.292,0.353-0.6,0.465-0.915
		c-0.284-0.292-0.582-0.581-0.892-0.866L56.25,18.235z"/>
	<path fill="#FFFFFF" d="M18.723,20.065c-0.804,0.904-1.271,2.005-1.403,3.15c-0.885-0.739-1.983-1.214-3.187-1.314
		c-0.383-0.032-0.72,0.25-0.751,0.636c-0.032,0.382,0.252,0.718,0.635,0.75c1.221,0.101,2.307,0.701,3.038,1.628
		c-1.122-0.357-2.353-0.325-3.497,0.133c-0.357,0.142-0.53,0.547-0.388,0.904s0.547,0.53,0.904,0.387
		c1.313-0.524,2.779-0.288,3.856,0.615l0.175,0.316c-1.95,1.206-2.89,3.794-2.022,5.963c0.145,0.362,0.527,1.016,1.045,1.83
		l2.959-1.184c0.357-0.142,0.761,0.031,0.904,0.388c0.143,0.356-0.031,0.761-0.388,0.904l-2.701,1.08
		c0.703,1.055,1.544,2.27,2.429,3.524l1.822-0.729c0.356-0.143,0.761,0.031,0.904,0.387c0.143,0.357-0.031,0.762-0.388,0.905
		l-1.51,0.604c2.504,3.513,5.134,7.118,5.65,7.812c0.188,0.254,0.523,0.349,0.817,0.231c0.294-0.118,0.471-0.42,0.432-0.73
		c-0.129-1.051-0.945-7.387-1.713-12.384l-2.125,0.85c-0.356,0.143-0.761-0.031-0.904-0.389c-0.143-0.355,0.031-0.761,0.388-0.903
		l2.42-0.968c-0.287-1.77-0.563-3.267-0.797-4.176l-3.173,1.269c-0.357,0.142-0.762-0.031-0.904-0.388
		c-0.143-0.357,0.031-0.761,0.388-0.904l3.166-1.266c-0.522-0.907-1.303-1.628-2.281-2.047c-0.953-0.409-1.984-0.487-2.976-0.264
		l-0.09-0.342c0.158-1.394,1.057-2.579,2.369-3.104c0.357-0.142,0.531-0.547,0.388-0.904c-0.143-0.357-0.547-0.53-0.904-0.388
		c-1.144,0.458-2.058,1.282-2.625,2.314c-0.109-1.174,0.265-2.355,1.079-3.273c0.256-0.291,0.229-0.727-0.058-0.981
		C19.417,19.752,18.977,19.777,18.723,20.065"/>
</g>
</svg>
