<?xml version="1.0" encoding="utf-8"?>
<!-- Generator: Adobe Illustrator 16.0.0, SVG Export Plug-In . SVG Version: 6.00 Build 0)  -->
<!DOCTYPE svg PUBLIC "-//W3C//DTD SVG 1.1//EN" "http://www.w3.org/Graphics/SVG/1.1/DTD/svg11.dtd">
<svg version="1.1" id="Capa_1" xmlns="http://www.w3.org/2000/svg" xmlns:xlink="http://www.w3.org/1999/xlink" x="0px" y="0px"
	 width="72.667px" height="72.081px" viewBox="0 0 72.667 72.081" enable-background="new 0 0 72.667 72.081" xml:space="preserve">
<polygon fill="#DD4A4A" points="60.543,67.077 42.294,67.188 33.073,51.439 42.102,35.58 60.351,35.468 69.572,51.216 "/>
<polygon fill="#86B240" points="31.516,50.989 13.267,51.1 4.046,35.351 13.074,19.492 31.323,19.38 40.544,35.129 "/>
<polygon fill="#E8A623" points="60.543,34.126 42.294,34.237 33.073,18.488 42.102,2.629 60.351,2.518 69.572,18.266 "/>
<path fill="#FFFFFF" d="M45.016,50.017c1.33-0.156,2.659-0.769,3.724-1.832c1.355-1.356,1.98-3.141,1.857-4.808
	c-3.403-1.75-6.99-1.75-8.898,0.158C41.066,44.169,42.427,46.893,45.016,50.017 M45.294,43.679c0.294-0.292,0.769-0.292,1.061,0
	c0.294,0.294,0.294,0.77,0,1.062c-0.292,0.292-0.767,0.292-1.061-0.001C45.002,44.449,45.002,43.973,45.294,43.679"/>
<path fill="#FFFFFF" d="M49.604,49.048c-1.058,1.058-2.338,1.741-3.661,2.048c0.448,0.501,0.922,1.006,1.423,1.51l0.121,1.742
	c0.026,0.373,0.188,0.724,0.453,0.988l0.343,0.343c0.134,0.133,0.325,0.188,0.508,0.145c0.183-0.044,0.329-0.178,0.386-0.357
	l0.321-0.991c2.866,2.19,6.167,3.645,8.068,3.958l1.395,4.058c0.063,0.183,0.23,0.31,0.423,0.32c0.191,0.01,0.372-0.098,0.454-0.272
	l0.832-1.766c0.163-0.347,0.44-0.624,0.786-0.787l1.768-0.832c0.174-0.082,0.281-0.262,0.271-0.455s-0.136-0.358-0.319-0.422
	l-4.052-1.394c-0.138-1.35-0.644-3.48-1.577-5.655l0.931-0.487c0.371-0.193,0.627-0.555,0.69-0.967
	c0.063-0.413-0.07-0.834-0.367-1.13l-4.104-4.104c-0.406-0.406-1.032-0.498-1.541-0.231l-0.584,0.308
	c-0.246-0.185-0.495-0.358-0.746-0.522C51.753,45.856,51.004,47.648,49.604,49.048"/>
<path fill="#FFFFFF" d="M56.836,24.924c2.611,0.509,4.543,0.067,5.439-1.244c0.469-0.686,0.616-1.575,0.424-2.57
	c-0.244-1.261-1.024-2.711-2.258-4.204c-0.098,0.187-0.206,0.372-0.326,0.55c-0.638,0.949-1.523,1.659-2.493,1.999
	c-1.042,0.365-2.062,0.269-2.867-0.274c-0.327-0.219-0.414-0.662-0.194-0.989l2.857-4.254c-0.229-0.187-0.463-0.373-0.703-0.556
	c-0.154,0.465-0.376,0.919-0.663,1.345c-0.638,0.949-1.523,1.659-2.493,1.999c-1.042,0.365-2.061,0.268-2.867-0.273
	c-0.327-0.22-0.414-0.663-0.194-0.99l2.872-4.274c-0.254-0.142-0.508-0.278-0.761-0.409c-0.153,0.423-0.36,0.834-0.618,1.219
	c-0.638,0.949-1.523,1.659-2.494,1.999c-1.042,0.365-2.061,0.269-2.867-0.274c-0.327-0.219-0.414-0.663-0.194-0.989l2.354-3.505
	c-0.449-0.13-0.889-0.238-1.317-0.321c-2.611-0.509-4.543-0.068-5.44,1.243c-0.004,0.006-0.009,0.013-0.013,0.019
	c-0.459,0.684-0.601,1.565-0.411,2.551c0.254,1.312,1.087,2.828,2.41,4.385c1.316,1.549,3.052,3.062,5.021,4.376
	C51.663,23.232,54.432,24.455,56.836,24.924"/>
<path fill="#FFFFFF" d="M52.188,15.506c0.887,0.075,1.978-0.528,2.681-1.574c0.307-0.456,0.514-0.948,0.61-1.441
	c-0.07-0.047-0.139-0.095-0.21-0.142c-0.221-0.148-0.445-0.292-0.668-0.433L52.188,15.506z"/>
<path fill="#FFFFFF" d="M48.125,12.777c0.887,0.075,1.978-0.528,2.681-1.575c0.222-0.33,0.393-0.684,0.507-1.043
	c-0.376-0.167-0.75-0.32-1.12-0.46L48.125,12.777z"/>
<path fill="#FFFFFF" d="M56.25,18.235c0.886,0.075,1.978-0.527,2.681-1.574c0.197-0.292,0.353-0.6,0.465-0.915
	c-0.284-0.292-0.582-0.581-0.892-0.866L56.25,18.235z"/>
<path fill="#FFFFFF" d="M18.723,20.065c-0.804,0.904-1.271,2.005-1.403,3.15c-0.885-0.739-1.983-1.214-3.187-1.314
	c-0.383-0.032-0.72,0.25-0.751,0.636c-0.032,0.382,0.252,0.718,0.635,0.75c1.221,0.101,2.307,0.701,3.038,1.628
	c-1.122-0.357-2.353-0.325-3.497,0.133c-0.357,0.142-0.53,0.547-0.388,0.904s0.547,0.53,0.904,0.387
	c1.313-0.524,2.779-0.288,3.856,0.615l0.175,0.316c-1.95,1.206-2.89,3.794-2.022,5.963c0.145,0.362,0.527,1.016,1.045,1.83
	l2.959-1.184c0.357-0.142,0.761,0.031,0.904,0.388c0.143,0.356-0.031,0.761-0.388,0.904l-2.701,1.08
	c0.703,1.055,1.544,2.27,2.429,3.524l1.822-0.729c0.356-0.143,0.761,0.031,0.904,0.387c0.143,0.357-0.031,0.762-0.388,0.905
	l-1.51,0.604c2.504,3.513,5.134,7.118,5.65,7.812c0.188,0.254,0.523,0.349,0.817,0.231c0.294-0.118,0.471-0.42,0.432-0.73
	c-0.129-1.051-0.945-7.387-1.713-12.384l-2.125,0.85c-0.356,0.143-0.761-0.031-0.904-0.389c-0.143-0.355,0.031-0.761,0.388-0.903
	l2.42-0.968c-0.287-1.77-0.563-3.267-0.797-4.176l-3.173,1.269c-0.357,0.142-0.762-0.031-0.904-0.388
	c-0.143-0.357,0.031-0.761,0.388-0.904l3.166-1.266c-0.522-0.907-1.303-1.628-2.281-2.047c-0.953-0.409-1.984-0.487-2.976-0.264
	l-0.09-0.342c0.158-1.394,1.057-2.579,2.369-3.104c0.357-0.142,0.531-0.547,0.388-0.904c-0.143-0.357-0.547-0.53-0.904-0.388
	c-1.144,0.458-2.058,1.282-2.625,2.314c-0.109-1.174,0.265-2.355,1.079-3.273c0.256-0.291,0.229-0.727-0.058-0.981
	C19.417,19.752,18.977,19.777,18.723,20.065"/>
</svg>
